<svg xmlns="http://www.w3.org/2000/svg" width="1032" height="1032" fill="none">
<path fill="#060c84" d="M4 0h1024v1024H4z"/>
<path fill="#fff" fill-rule="evenodd" d="M578 174.5c0 22.454-11.841 42.143-29.62 53.162-.273 6.313.018 43.338.018 43.338H807.51c5.243.134 12.311 1.617 18.545 6.822 6.707 5.6 11.133 14.335 10.86 26.087-.269 11.544-4.798 22.04-11.939 27.144-6.3 4.503-13.446 5.51-18.562 5.101h-31.289l112.709 241.684a21 21 0 0 1 1.957 8.225c5.954.461 11.333 3.418 14.704 8.26 3.71 5.332 4.442 12.184 1.881 18.474a522 522 0 0 1-7.455 17.377c-2.352 5.199-4.909 10.569-6.698 13.321-10.839 16.675-23.491 24.715-31.345 27.203q-.201.064-.399.121c-1.974.571-3.739.681-5.05.681H666.5c-7.691 0-14.649-2.836-19.876-5.81-5.317-3.025-9.727-6.697-12.578-9.554a19.6 19.6 0 0 1-3.249-4.353l-19.184-34.6c-6.517-11.754-.423-25.757 11.175-29.943-.091-3.193.558-6.488 2.084-9.669L741.64 336.154H550.418c-.473 0-.758.052-.899.087a1 1 0 0 0-.142.043l-.023.01-.003.002-.01.005-.002.001-.006.005-.012.01a1.3 1.3 0 0 0-.159.2c-.175.262-.384.701-.544 1.301a5.7 5.7 0 0 0-.2 1.336V774.5h88.916l.74.101c4.992.681 12.259 2.79 18.69 7.206 6.65 4.566 13.158 12.22 13.806 23.565.522 9.132.525 19.465.371 27.628h26.647c10.076 0 16.878 6.468 20.708 11.747 3.948 5.442 6.379 11.733 7.608 16.206.612 2.227.718 4.538.824 6.839v.007q.037.84.085 1.678v.005c.278 4.682.715 12.034.687 18.409-.019 4.317-.232 9.136-1.057 13.13-.394 1.907-1.105 4.561-2.617 7-1.591 2.567-5.2 6.479-11.238 6.479h-397c-5.817 0-9.583-3.519-11.467-6.357-1.721-2.592-2.547-5.464-3.009-7.585-.516-5.112-.508-18.158-.501-29.042v-.013c.002-2.01.003-3.947.001-5.745v-.026c0-11.232 5.76-18.617 11.521-23.122 6.246-4.885 15.002-9.61 23.211-9.61h21.744v-23c0-13.054 5.788-22.291 13.419-27.989 7.132-5.325 15.4-7.263 21.123-7.501l.229-.01h87.229V336.136l-.182-.045a5 5 0 0 0-.56-.087 3 3 0 0 0-.319-.013l-.219.009H291.805l109.354 242.363a21 21 0 0 1 1.869 7.897c13.945 2.189 22.152 17.801 15.083 30.783l-18.944 34.788-.065.142-.13.299-.003.006-.032.075c-.068.156-.161.371-.264.6-4.277 9.495-16.685 18.547-37.673 18.547H176.156c-7.495.181-23.379-3.26-31.067-19.228-2.367-4.917-7.329-13.539-12.678-22.836-2.46-4.275-5.002-8.692-7.412-12.958-7.423-13.141 1.218-28.249 14.897-30.254a21 21 0 0 1 1.828-7.772L249.778 336h-27.624c-5.413.495-13.125-.405-19.918-5.07-7.77-5.335-12.648-14.43-12.648-26.93s4.858-21.592 12.364-27.104c6.745-4.952 14.506-6.195 19.976-5.896h257.16v-45.696C463.29 213.961 453 195.432 453 174.5c0-34.518 27.982-62.5 62.5-62.5s62.5 27.982 62.5 62.5M515.5 237c3.307 0 6.555-.257 9.723-.752q-.047 2.381-.104 4.783v.037c-.229 10.022-.462 20.271.652 29.932.334 2.897.928 5.748 2.216 8.95 1.24 3.087 3.671 7.362 8.491 9.838 5.008 2.571 10.578 3.383 14.293 3.212h256c1.278.059 3.489.294 5.184 1.71 1.268 1.058 3.092 3.24 2.966 8.688-.07 2.977-.643 6.775-1.149 7.807-.489.997-1.055 1.568-1.588 1.949-1.275.911-3.067 1.173-4.084 1.063l-.59-.063H550.418c-9.141 0-15.707 4.396-19.545 10.136-3.443 5.15-4.455 10.927-4.455 14.864V774.5h-25.33V336c0-8.628-4.243-14.846-9.875-18.351-4.837-3.011-10.162-3.752-13.807-3.649H220.935l-.648.077c-1.566.187-3.953-.154-5.597-1.282-.698-.48-1.369-1.161-1.919-2.288-.568-1.165-1.183-3.179-1.183-6.507 0-6.3 2.142-8.458 3.385-9.371 1.821-1.337 4.319-1.765 5.831-1.657l.391.028h258.893c11.598 0 21-9.402 21-21v-36.67A62.7 62.7 0 0 0 515.5 237m39.5-62c0 22.091-17.909 40-40 40s-40-17.909-40-40 17.909-40 40-40 40 17.909 40 40M415.588 833h-36.5v-23c0-5.746 2.212-8.592 4.581-10.361 2.79-2.083 6.398-3.003 8.688-3.139h243.382c2.358.422 5.799 1.539 8.572 3.443 2.817 1.934 4.143 4.03 4.295 6.685.492 8.614.485 18.575.331 26.372h-33.849v22h82.5c5.912 0 7.777 8.05 7.775 11.589.289 5.947.18 12.68.084 18.582a465 465 0 0 0-.084 7.329H322.149v-.698c-.001-9.717-.001-18.401.414-27.534 0-6.268 7.937-9.268 13.034-9.268h79.991zm342.737-482.763L645.394 585.654H867.21zM162.445 586l108.341-243.094L380.469 586zm-11.591 31.369c-1.839-3.197-3.666-6.373-5.371-9.369h252.502l-18.165 33.358c-.37.678-.65 1.294-.833 1.706-.115.259-.171.389-.206.47-.058.135-.057.138-.167.384q.023-.05-.019.014h-.001c-.345.484-3.975 5.568-17.594 5.568H175.81l-.189.007c-.707.024-2.884-.186-5.218-1.308-2.137-1.028-4.148-2.68-5.492-5.471-2.733-5.677-8.453-15.618-14.057-25.359m499.053 23.511L631.677 608h252.881a491 491 0 0 1-5.682 13.107c-2.534 5.601-4.399 9.322-5.099 10.398-7.862 12.096-15.947 16.787-18.927 17.995H666.5c-2.43 0-5.548-.969-8.996-2.931-3.173-1.805-5.902-4.042-7.597-5.689" clip-rule="evenodd"/>
</svg>