<svg width="909" height="100" fill="none" xmlns="http://www.w3.org/2000/svg">
<path fill="#060C84" d="M63.984 83.535v15.996H13.877V83.535h50.107ZM20.508 0v99.531H0V0h20.508ZM138.578 17.021l-27.07 82.51H89.701L126.684 0h13.877l-1.983 17.021Zm22.49 82.51-27.138-82.51L131.742 0h14.014l37.187 99.531h-21.875Zm-1.23-37.05v16.064H107.27V62.48h52.568ZM233.748 83.74 253.572 0h11.074l2.53 13.945-21.123 85.586h-11.895l-.41-15.79ZM223.562 0l16.407 83.74-1.367 15.791H225.34L203.26 0h20.302Zm61.045 83.398L300.809 0h20.302L299.1 99.531h-13.262l-1.231-16.133ZM270.867 0l19.961 84.082-.547 15.45h-11.894l-21.26-85.655L259.861 0h11.006ZM366.926 0l20.781 45.39L408.488 0h22.354l-32.744 63.3v36.231h-20.782v-36.23L344.504 0h22.422ZM527.721 83.535v15.996h-52.979V83.535h52.979ZM481.441 0v99.531h-20.507V0h20.507Zm39.375 40.537v15.586h-46.074V40.537h46.074ZM527.652 0v16.064h-52.91V0h52.91ZM560.684 0h37.119c7.61 0 14.15 1.14 19.619 3.418 5.514 2.279 9.752 5.651 12.715 10.117 2.962 4.466 4.443 9.958 4.443 16.475 0 5.332-.911 9.912-2.734 13.74-1.778 3.783-4.307 6.95-7.588 9.502-3.236 2.506-7.041 4.512-11.416 6.016l-6.494 3.417h-32.266l-.137-15.995h23.994c3.601 0 6.586-.639 8.956-1.915 2.369-1.276 4.147-3.053 5.332-5.332 1.23-2.278 1.845-4.921 1.845-7.93 0-3.19-.592-5.947-1.777-8.27-1.185-2.325-2.985-4.102-5.4-5.333-2.416-1.23-5.446-1.846-9.092-1.846h-16.612v83.467h-20.507V0Zm55.644 99.531-22.695-44.365 21.67-.137 22.968 43.545v.957h-21.943ZM693.178 0v99.531h-20.44V0h20.44ZM753.895 0v99.531h-20.508V0h20.508Zm39.648 42.52v15.996h-45.254V42.52h45.254ZM798.328 0v16.064h-50.039V0h50.039ZM844.895 0l20.781 45.39L886.457 0h22.354l-32.745 63.3v36.231h-20.781v-36.23L822.473 0h22.422Z"/>
</svg>